# xmcd
#
# Track frame offsets:
#	150
#	16034
#	28865
#	46217
#	64128
#	83225
#	101158
#	114801
#	130731
#	145154
#	162397
#	175451
#	191575
#	207101
#	226741
#	241608
#	257244
#	272505
#	288403
#	303622
#
# Disc length: 4253 seconds
#
# Revision: 6
# Processed by: cddbd v1.5.2PL0 Copyright (c) Steve Scherf et al.
# Submitted via: EasyCDDAExtractor 15.3.0.1
#
DISCID=10109b14
DTITLE=Celine Dion - Courage (Deluxe Edition)
DYEAR=2019
DGENRE=Pop
TTITLE0=Flying On My Own
TTITLE1=Lovers Never Die
TTITLE2=Falling In Love Again
TTITLE3=Lying Down
TTITLE4=Courage
TTITLE5=Imperfections
TTITLE6=Change My Mind
TTITLE7=Say Yes
TTITLE8=Nobody's Watching
TTITLE9=The Chase
TTITLE10=For The Lover That I Lost
TTITLE11=Baby
TTITLE12=I Will Be Stronger
TTITLE13=How Did You Get Here
TTITLE14=Look At Us Now
TTITLE15=Perfect Goodbye
TTITLE16=Best Of All
TTITLE17=Heart Of Glass
TTITLE18=Boundaries
TTITLE19=The Hard Way
EXTD=\n YEAR: 2019
EXTT0=
EXTT1=
EXTT2=
EXTT3=
EXTT4=
EXTT5=
EXTT6=
EXTT7=
EXTT8=
EXTT9=
EXTT10=
EXTT11=
EXTT12=
EXTT13=
EXTT14=
EXTT15=
EXTT16=
EXTT17=
EXTT18=
EXTT19=
PLAYORDER=
